<svg width="1440" height="1024" viewBox="0 0 1440 1024" fill="none" xmlns="http://www.w3.org/2000/svg">
<rect width="15.634" height="15.335" rx="7.66748" transform="matrix(-0.666806 0.742707 -0.754952 -0.658649 651.433 732.108)" fill="#EDF2F7"/>
<rect width="15.634" height="15.335" rx="7.66748" transform="matrix(-0.666806 0.742707 -0.754952 -0.658649 649.256 749.547)" fill="#EDF2F7"/>
<rect width="15.634" height="15.335" rx="7.66748" transform="matrix(-0.666806 0.742707 -0.754952 -0.658649 632.22 753.508)" fill="#EDF2F7"/>
<rect width="21.836" height="21.4183" rx="10.7091" transform="matrix(-0.666806 0.742707 -0.754952 -0.658649 634.178 731.943)" fill="#EDF2F7"/>
<rect width="15.634" height="15.335" rx="7.66748" transform="matrix(-0.666806 0.742707 -0.754952 -0.658649 666.132 817.973)" fill="#EDF2F7"/>
<rect width="15.634" height="15.335" rx="7.66748" transform="matrix(-0.666806 0.742707 -0.754952 -0.658649 663.955 835.411)" fill="#EDF2F7"/>
<rect width="15.634" height="15.335" rx="7.66748" transform="matrix(-0.666806 0.742707 -0.754952 -0.658649 646.92 839.372)" fill="#EDF2F7"/>
<rect width="21.836" height="21.4183" rx="10.7091" transform="matrix(-0.666806 0.742707 -0.754952 -0.658649 648.878 817.807)" fill="#EDF2F7"/>
<rect width="15.634" height="15.335" rx="7.66748" transform="matrix(-0.666806 0.742707 -0.754952 -0.658649 746.821 794.615)" fill="#EDF2F7"/>
<rect width="15.634" height="15.335" rx="7.66748" transform="matrix(-0.666806 0.742707 -0.754952 -0.658649 744.644 812.053)" fill="#EDF2F7"/>
<rect width="15.634" height="15.335" rx="7.66748" transform="matrix(-0.666806 0.742707 -0.754952 -0.658649 727.608 816.015)" fill="#EDF2F7"/>
<rect width="21.836" height="21.4183" rx="10.7091" transform="matrix(-0.666806 0.742707 -0.754952 -0.658649 729.566 794.45)" fill="#EDF2F7"/>
<rect width="15.634" height="15.335" rx="7.66748" transform="matrix(-0.666806 0.742707 -0.754952 -0.658649 738.047 870.903)" fill="#EDF2F7"/>
<rect width="15.634" height="15.335" rx="7.66748" transform="matrix(-0.666806 0.742707 -0.754952 -0.658649 735.87 888.341)" fill="#EDF2F7"/>
<rect width="15.634" height="15.335" rx="7.66748" transform="matrix(-0.666806 0.742707 -0.754952 -0.658649 718.835 892.302)" fill="#EDF2F7"/>
<rect width="21.836" height="21.4183" rx="10.7091" transform="matrix(-0.666806 0.742707 -0.754952 -0.658649 720.793 870.737)" fill="#EDF2F7"/>
<rect width="13.7412" height="13.493" rx="6.74649" transform="matrix(0.301775 -0.946707 0.96127 0.29776 1324.6 962.406)" fill="#EDF2F7"/>
<rect width="13.7412" height="13.493" rx="6.74649" transform="matrix(0.301775 -0.946707 0.96127 0.29776 1320 947.634)" fill="#EDF2F7"/>
<rect width="13.7412" height="13.493" rx="6.74649" transform="matrix(0.301775 -0.946707 0.96127 0.29776 1332.24 938.431)" fill="#EDF2F7"/>
<rect width="19.1922" height="18.8456" rx="9.42278" transform="matrix(0.301775 -0.946707 0.96127 0.29776 1338.51 956.439)" fill="#EDF2F7"/>
<rect width="13.7412" height="13.493" rx="6.74649" transform="matrix(0.301775 -0.946707 0.96127 0.29776 1281.56 898.656)" fill="#EDF2F7"/>
<rect width="13.7412" height="13.493" rx="6.74649" transform="matrix(0.301775 -0.946707 0.96127 0.29776 1276.97 883.884)" fill="#EDF2F7"/>
<rect width="13.7412" height="13.493" rx="6.74649" transform="matrix(0.301775 -0.946707 0.96127 0.29776 1289.2 874.681)" fill="#EDF2F7"/>
<rect width="19.1922" height="18.8456" rx="9.42278" transform="matrix(0.301775 -0.946707 0.96127 0.29776 1295.48 892.689)" fill="#EDF2F7"/>
<rect width="13.7412" height="13.493" rx="6.74649" transform="matrix(0.301775 -0.946707 0.96127 0.29776 1225.27 945.935)" fill="#EDF2F7"/>
<rect width="13.7412" height="13.493" rx="6.74649" transform="matrix(0.301775 -0.946707 0.96127 0.29776 1220.67 931.163)" fill="#EDF2F7"/>
<rect width="13.7412" height="13.493" rx="6.74649" transform="matrix(0.301775 -0.946707 0.96127 0.29776 1232.91 921.96)" fill="#EDF2F7"/>
<rect width="19.1922" height="18.8456" rx="9.42278" transform="matrix(0.301775 -0.946707 0.96127 0.29776 1239.18 939.968)" fill="#EDF2F7"/>
<rect width="13.7412" height="13.493" rx="6.74649" transform="matrix(0.301775 -0.946707 0.96127 0.29776 1204.56 881.577)" fill="#EDF2F7"/>
<rect width="13.7412" height="13.493" rx="6.74649" transform="matrix(0.301775 -0.946707 0.96127 0.29776 1199.96 866.806)" fill="#EDF2F7"/>
<rect width="13.7412" height="13.493" rx="6.74649" transform="matrix(0.301775 -0.946707 0.96127 0.29776 1212.2 857.602)" fill="#EDF2F7"/>
<rect width="19.1922" height="18.8456" rx="9.42278" transform="matrix(0.301775 -0.946707 0.96127 0.29776 1218.48 875.611)" fill="#EDF2F7"/>
<rect width="13.7492" height="13.4851" rx="6.74256" transform="matrix(0.761724 -0.647901 0.658633 0.752464 1265.62 188.365)" fill="#EDF2F7"/>
<rect width="13.7492" height="13.4851" rx="6.74256" transform="matrix(0.761724 -0.647901 0.658633 0.752464 1269.6 173.421)" fill="#EDF2F7"/>
<rect width="13.7492" height="13.4851" rx="6.74256" transform="matrix(0.761724 -0.647901 0.658633 0.752464 1284.92 171.948)" fill="#EDF2F7"/>
<rect width="19.2034" height="18.8346" rx="9.41729" transform="matrix(0.761724 -0.647901 0.658633 0.752464 1280.64 190.514)" fill="#EDF2F7"/>
<rect width="13.7492" height="13.4851" rx="6.74256" transform="matrix(0.761724 -0.647901 0.658633 0.752464 1263.08 111.829)" fill="#EDF2F7"/>
<rect width="13.7492" height="13.4851" rx="6.74256" transform="matrix(0.761724 -0.647901 0.658633 0.752464 1267.06 96.8852)" fill="#EDF2F7"/>
<rect width="13.7492" height="13.4851" rx="6.74256" transform="matrix(0.761724 -0.647901 0.658633 0.752464 1282.38 95.4119)" fill="#EDF2F7"/>
<rect width="19.2034" height="18.8346" rx="9.41729" transform="matrix(0.761724 -0.647901 0.658633 0.752464 1278.09 113.978)" fill="#EDF2F7"/>
<rect width="13.7492" height="13.4851" rx="6.74256" transform="matrix(0.761724 -0.647901 0.658633 0.752464 1189.97 122.811)" fill="#EDF2F7"/>
<rect width="13.7492" height="13.4851" rx="6.74256" transform="matrix(0.761724 -0.647901 0.658633 0.752464 1193.95 107.867)" fill="#EDF2F7"/>
<rect width="13.7492" height="13.4851" rx="6.74256" transform="matrix(0.761724 -0.647901 0.658633 0.752464 1209.27 106.394)" fill="#EDF2F7"/>
<rect width="19.2034" height="18.8346" rx="9.41729" transform="matrix(0.761724 -0.647901 0.658633 0.752464 1204.98 124.96)" fill="#EDF2F7"/>
<rect width="13.7492" height="13.4851" rx="6.74256" transform="matrix(0.761724 -0.647901 0.658633 0.752464 1206.73 57.3482)" fill="#EDF2F7"/>
<rect width="13.7492" height="13.4851" rx="6.74256" transform="matrix(0.761724 -0.647901 0.658633 0.752464 1210.71 42.4041)" fill="#EDF2F7"/>
<rect width="13.7492" height="13.4851" rx="6.74256" transform="matrix(0.761724 -0.647901 0.658633 0.752464 1226.03 40.9308)" fill="#EDF2F7"/>
<rect width="19.2034" height="18.8346" rx="9.41729" transform="matrix(0.761724 -0.647901 0.658633 0.752464 1221.75 59.4969)" fill="#EDF2F7"/>
<rect width="11.7256" height="11.5318" rx="5.76592" transform="matrix(-0.982025 -0.221727 0.224786 -0.967446 1055.5 571.7)" fill="#EDF2F7"/>
<rect width="11.7256" height="11.5318" rx="5.76592" transform="matrix(-0.982025 -0.221727 0.224786 -0.967446 1043.05 576.556)" fill="#EDF2F7"/>
<rect width="11.7256" height="11.5318" rx="5.76592" transform="matrix(-0.982025 -0.221727 0.224786 -0.967446 1034.28 566.908)" fill="#EDF2F7"/>
<rect width="16.3771" height="16.1065" rx="8.05323" transform="matrix(-0.982025 -0.221727 0.224786 -0.967446 1049.4 560.426)" fill="#EDF2F7"/>
<rect width="11.7256" height="11.5318" rx="5.76592" transform="matrix(-0.982025 -0.221727 0.224786 -0.967446 1003.36 612.13)" fill="#EDF2F7"/>
<rect width="11.7256" height="11.5318" rx="5.76592" transform="matrix(-0.982025 -0.221727 0.224786 -0.967446 990.911 616.986)" fill="#EDF2F7"/>
<rect width="11.7256" height="11.5318" rx="5.76592" transform="matrix(-0.982025 -0.221727 0.224786 -0.967446 982.135 607.339)" fill="#EDF2F7"/>
<rect width="16.3771" height="16.1065" rx="8.05323" transform="matrix(-0.982025 -0.221727 0.224786 -0.967446 997.262 600.856)" fill="#EDF2F7"/>
<rect width="11.7256" height="11.5318" rx="5.76592" transform="matrix(-0.982025 -0.221727 0.224786 -0.967446 1047.99 656.173)" fill="#EDF2F7"/>
<rect width="11.7256" height="11.5318" rx="5.76592" transform="matrix(-0.982025 -0.221727 0.224786 -0.967446 1035.55 661.029)" fill="#EDF2F7"/>
<rect width="11.7256" height="11.5318" rx="5.76592" transform="matrix(-0.982025 -0.221727 0.224786 -0.967446 1026.77 651.381)" fill="#EDF2F7"/>
<rect width="16.3771" height="16.1065" rx="8.05323" transform="matrix(-0.982025 -0.221727 0.224786 -0.967446 1041.9 644.899)" fill="#EDF2F7"/>
<rect width="11.7256" height="11.5318" rx="5.76592" transform="matrix(-0.982025 -0.221727 0.224786 -0.967446 993.816 677.904)" fill="#EDF2F7"/>
<rect width="11.7256" height="11.5318" rx="5.76592" transform="matrix(-0.982025 -0.221727 0.224786 -0.967446 981.37 682.76)" fill="#EDF2F7"/>
<rect width="11.7256" height="11.5318" rx="5.76592" transform="matrix(-0.982025 -0.221727 0.224786 -0.967446 972.595 673.112)" fill="#EDF2F7"/>
<rect width="16.3771" height="16.1065" rx="8.05323" transform="matrix(-0.982025 -0.221727 0.224786 -0.967446 987.722 666.63)" fill="#EDF2F7"/>
<rect width="22.6337" height="22.223" rx="11.1115" transform="matrix(0.990148 -0.178802 0.181569 0.977059 1231.62 639.926)" fill="#EDF2F7"/>
<rect width="22.6337" height="22.223" rx="11.1115" transform="matrix(0.990148 -0.178802 0.181569 0.977059 1249.92 621.97)" fill="#EDF2F7"/>
<rect width="22.6337" height="22.223" rx="11.1115" transform="matrix(0.990148 -0.178802 0.181569 0.977059 1272.93 632.468)" fill="#EDF2F7"/>
<rect width="31.6124" height="31.0387" rx="15.5193" transform="matrix(0.990148 -0.178802 0.181569 0.977059 1251.14 655.32)" fill="#EDF2F7"/>
<rect width="22.6337" height="22.223" rx="11.1115" transform="matrix(0.990148 -0.178802 0.181569 0.977059 1292.74 529.115)" fill="#EDF2F7"/>
<rect width="22.6337" height="22.223" rx="11.1115" transform="matrix(0.990148 -0.178802 0.181569 0.977059 1311.03 511.159)" fill="#EDF2F7"/>
<rect width="22.6337" height="22.223" rx="11.1115" transform="matrix(0.990148 -0.178802 0.181569 0.977059 1334.04 521.656)" fill="#EDF2F7"/>
<rect width="31.6124" height="31.0387" rx="15.5193" transform="matrix(0.990148 -0.178802 0.181569 0.977059 1312.25 544.509)" fill="#EDF2F7"/>
<rect width="22.6337" height="22.223" rx="11.1115" transform="matrix(0.990148 -0.178802 0.181569 0.977059 1179.6 484.632)" fill="#EDF2F7"/>
<rect width="22.6337" height="22.223" rx="11.1115" transform="matrix(0.990148 -0.178802 0.181569 0.977059 1197.89 466.676)" fill="#EDF2F7"/>
<rect width="22.6337" height="22.223" rx="11.1115" transform="matrix(0.990148 -0.178802 0.181569 0.977059 1220.9 477.173)" fill="#EDF2F7"/>
<rect width="31.6124" height="31.0387" rx="15.5193" transform="matrix(0.990148 -0.178802 0.181569 0.977059 1199.11 500.025)" fill="#EDF2F7"/>
<rect width="22.6337" height="22.223" rx="11.1115" transform="matrix(0.990148 -0.178802 0.181569 0.977059 1258.77 405.419)" fill="#EDF2F7"/>
<rect width="22.6337" height="22.223" rx="11.1115" transform="matrix(0.990148 -0.178802 0.181569 0.977059 1277.07 387.463)" fill="#EDF2F7"/>
<rect width="22.6337" height="22.223" rx="11.1115" transform="matrix(0.990148 -0.178802 0.181569 0.977059 1300.08 397.961)" fill="#EDF2F7"/>
<rect width="31.6124" height="31.0387" rx="15.5193" transform="matrix(0.990148 -0.178802 0.181569 0.977059 1278.29 420.813)" fill="#EDF2F7"/>
<rect width="17.1448" height="16.8156" rx="8.40779" transform="matrix(0.761724 -0.647901 0.658633 0.752464 101.571 203.216)" fill="#EDF2F7"/>
<rect width="17.1448" height="16.8156" rx="8.40779" transform="matrix(0.761724 -0.647901 0.658633 0.752464 106.536 184.581)" fill="#EDF2F7"/>
<rect width="17.1448" height="16.8156" rx="8.40779" transform="matrix(0.761724 -0.647901 0.658633 0.752464 125.64 182.744)" fill="#EDF2F7"/>
<rect width="23.9461" height="23.4862" rx="11.7431" transform="matrix(0.761724 -0.647901 0.658633 0.752464 120.297 205.896)" fill="#EDF2F7"/>
<rect width="17.1448" height="16.8156" rx="8.40779" transform="matrix(0.761724 -0.647901 0.658633 0.752464 98.3971 107.778)" fill="#EDF2F7"/>
<rect width="17.1448" height="16.8156" rx="8.40779" transform="matrix(0.761724 -0.647901 0.658633 0.752464 103.362 89.1431)" fill="#EDF2F7"/>
<rect width="17.1448" height="16.8156" rx="8.40779" transform="matrix(0.761724 -0.647901 0.658633 0.752464 122.466 87.3059)" fill="#EDF2F7"/>
<rect width="23.9461" height="23.4862" rx="11.7431" transform="matrix(0.761724 -0.647901 0.658633 0.752464 117.123 110.457)" fill="#EDF2F7"/>
<rect width="17.1448" height="16.8156" rx="8.40779" transform="matrix(0.761724 -0.647901 0.658633 0.752464 7.23096 121.472)" fill="#EDF2F7"/>
<rect width="17.1448" height="16.8156" rx="8.40779" transform="matrix(0.761724 -0.647901 0.658633 0.752464 12.1962 102.838)" fill="#EDF2F7"/>
<rect width="17.1448" height="16.8156" rx="8.40779" transform="matrix(0.761724 -0.647901 0.658633 0.752464 31.2996 101)" fill="#EDF2F7"/>
<rect width="23.9461" height="23.4862" rx="11.7431" transform="matrix(0.761724 -0.647901 0.658633 0.752464 25.9572 124.152)" fill="#EDF2F7"/>
<rect width="17.1448" height="16.8156" rx="8.40779" transform="matrix(0.761724 -0.647901 0.658633 0.752464 28.1371 39.8414)" fill="#EDF2F7"/>
<rect width="17.1448" height="16.8156" rx="8.40779" transform="matrix(0.761724 -0.647901 0.658633 0.752464 33.1022 21.2065)" fill="#EDF2F7"/>
<rect width="17.1448" height="16.8156" rx="8.40779" transform="matrix(0.761724 -0.647901 0.658633 0.752464 52.2057 19.3693)" fill="#EDF2F7"/>
<rect width="23.9461" height="23.4862" rx="11.7431" transform="matrix(0.761724 -0.647901 0.658633 0.752464 46.8632 42.5208)" fill="#EDF2F7"/>
<rect width="24.0849" height="23.6224" rx="11.8112" transform="matrix(0.761724 -0.647901 0.658633 0.752464 648.063 299.152)" fill="#EDF2F7"/>
<rect width="24.0849" height="23.6224" rx="11.8112" transform="matrix(0.761724 -0.647901 0.658633 0.752464 655.038 272.974)" fill="#EDF2F7"/>
<rect width="24.0849" height="23.6224" rx="11.8112" transform="matrix(0.761724 -0.647901 0.658633 0.752464 681.875 270.393)" fill="#EDF2F7"/>
<rect width="33.6393" height="32.9933" rx="16.4966" transform="matrix(0.761724 -0.647901 0.658633 0.752464 674.37 302.916)" fill="#EDF2F7"/>
<rect width="24.0849" height="23.6224" rx="11.8112" transform="matrix(0.761724 -0.647901 0.658633 0.752464 643.605 165.081)" fill="#EDF2F7"/>
<rect width="24.0849" height="23.6224" rx="11.8112" transform="matrix(0.761724 -0.647901 0.658633 0.752464 650.58 138.903)" fill="#EDF2F7"/>
<rect width="24.0849" height="23.6224" rx="11.8112" transform="matrix(0.761724 -0.647901 0.658633 0.752464 677.416 136.322)" fill="#EDF2F7"/>
<rect width="33.6393" height="32.9933" rx="16.4966" transform="matrix(0.761724 -0.647901 0.658633 0.752464 669.911 168.845)" fill="#EDF2F7"/>
<rect width="24.0849" height="23.6224" rx="11.8112" transform="matrix(0.761724 -0.647901 0.658633 0.752464 515.535 184.319)" fill="#EDF2F7"/>
<rect width="24.0849" height="23.6224" rx="11.8112" transform="matrix(0.761724 -0.647901 0.658633 0.752464 522.51 158.141)" fill="#EDF2F7"/>
<rect width="24.0849" height="23.6224" rx="11.8112" transform="matrix(0.761724 -0.647901 0.658633 0.752464 549.346 155.56)" fill="#EDF2F7"/>
<rect width="33.6393" height="32.9933" rx="16.4966" transform="matrix(0.761724 -0.647901 0.658633 0.752464 541.841 188.083)" fill="#EDF2F7"/>
<rect width="24.0849" height="23.6224" rx="11.8112" transform="matrix(0.761724 -0.647901 0.658633 0.752464 544.904 69.6445)" fill="#EDF2F7"/>
<rect width="24.0849" height="23.6224" rx="11.8112" transform="matrix(0.761724 -0.647901 0.658633 0.752464 551.879 43.4664)" fill="#EDF2F7"/>
<rect width="24.0849" height="23.6224" rx="11.8112" transform="matrix(0.761724 -0.647901 0.658633 0.752464 578.715 40.8856)" fill="#EDF2F7"/>
<rect width="33.6393" height="32.9933" rx="16.4966" transform="matrix(0.761724 -0.647901 0.658633 0.752464 571.21 73.4085)" fill="#EDF2F7"/>
<rect width="19.9503" height="19.5672" rx="9.78361" transform="matrix(0.761724 -0.647901 0.658633 0.752464 169.721 918.43)" fill="#EDF2F7"/>
<rect width="19.9503" height="19.5672" rx="9.78361" transform="matrix(0.761724 -0.647901 0.658633 0.752464 175.498 896.745)" fill="#EDF2F7"/>
<rect width="19.9503" height="19.5672" rx="9.78361" transform="matrix(0.761724 -0.647901 0.658633 0.752464 197.728 894.608)" fill="#EDF2F7"/>
<rect width="27.8645" height="27.3294" rx="13.6647" transform="matrix(0.761724 -0.647901 0.658633 0.752464 191.511 921.547)" fill="#EDF2F7"/>
<rect width="19.9503" height="19.5672" rx="9.78361" transform="matrix(0.761724 -0.647901 0.658633 0.752464 166.027 807.374)" fill="#EDF2F7"/>
<rect width="19.9503" height="19.5672" rx="9.78361" transform="matrix(0.761724 -0.647901 0.658633 0.752464 171.805 785.69)" fill="#EDF2F7"/>
<rect width="19.9503" height="19.5672" rx="9.78361" transform="matrix(0.761724 -0.647901 0.658633 0.752464 194.034 783.552)" fill="#EDF2F7"/>
<rect width="27.8645" height="27.3294" rx="13.6647" transform="matrix(0.761724 -0.647901 0.658633 0.752464 187.818 810.492)" fill="#EDF2F7"/>
<rect width="19.9503" height="19.5672" rx="9.78361" transform="matrix(0.761724 -0.647901 0.658633 0.752464 59.9428 823.309)" fill="#EDF2F7"/>
<rect width="19.9503" height="19.5672" rx="9.78361" transform="matrix(0.761724 -0.647901 0.658633 0.752464 65.7206 801.625)" fill="#EDF2F7"/>
<rect width="19.9503" height="19.5672" rx="9.78361" transform="matrix(0.761724 -0.647901 0.658633 0.752464 87.95 799.487)" fill="#EDF2F7"/>
<rect width="27.8645" height="27.3294" rx="13.6647" transform="matrix(0.761724 -0.647901 0.658633 0.752464 81.7334 826.427)" fill="#EDF2F7"/>
<rect width="19.9503" height="19.5672" rx="9.78361" transform="matrix(0.761724 -0.647901 0.658633 0.752464 84.27 728.321)" fill="#EDF2F7"/>
<rect width="19.9503" height="19.5672" rx="9.78361" transform="matrix(0.761724 -0.647901 0.658633 0.752464 90.0475 706.636)" fill="#EDF2F7"/>
<rect width="19.9503" height="19.5672" rx="9.78361" transform="matrix(0.761724 -0.647901 0.658633 0.752464 112.277 704.499)" fill="#EDF2F7"/>
<rect width="27.8645" height="27.3294" rx="13.6647" transform="matrix(0.761724 -0.647901 0.658633 0.752464 106.06 731.438)" fill="#EDF2F7"/>
<rect width="13.7464" height="13.4878" rx="6.74391" transform="matrix(0.927623 -0.384483 0.390695 0.915979 227.287 587.138)" fill="#EDF2F7"/>
<rect width="13.7464" height="13.4878" rx="6.74391" transform="matrix(0.927623 -0.384483 0.390695 0.915979 235.755 574.136)" fill="#EDF2F7"/>
<rect width="13.7464" height="13.4878" rx="6.74391" transform="matrix(0.927623 -0.384483 0.390695 0.915979 250.788 577.397)" fill="#EDF2F7"/>
<rect width="19.1995" height="18.8384" rx="9.41918" transform="matrix(0.927623 -0.384483 0.390695 0.915979 240.898 593.752)" fill="#EDF2F7"/>
<rect width="13.7464" height="13.4878" rx="6.74391" transform="matrix(0.927623 -0.384483 0.390695 0.915979 248.838 513.566)" fill="#EDF2F7"/>
<rect width="13.7464" height="13.4878" rx="6.74391" transform="matrix(0.927623 -0.384483 0.390695 0.915979 257.306 500.564)" fill="#EDF2F7"/>
<rect width="13.7464" height="13.4878" rx="6.74391" transform="matrix(0.927623 -0.384483 0.390695 0.915979 272.339 503.826)" fill="#EDF2F7"/>
<rect width="19.1995" height="18.8384" rx="9.41918" transform="matrix(0.927623 -0.384483 0.390695 0.915979 262.449 520.181)" fill="#EDF2F7"/>
<rect width="13.7464" height="13.4878" rx="6.74391" transform="matrix(0.927623 -0.384483 0.390695 0.915979 175.86 501.76)" fill="#EDF2F7"/>
<rect width="13.7464" height="13.4878" rx="6.74391" transform="matrix(0.927623 -0.384483 0.390695 0.915979 184.328 488.758)" fill="#EDF2F7"/>
<rect width="13.7464" height="13.4878" rx="6.74391" transform="matrix(0.927623 -0.384483 0.390695 0.915979 199.361 492.019)" fill="#EDF2F7"/>
<rect width="19.1995" height="18.8384" rx="9.41918" transform="matrix(0.927623 -0.384483 0.390695 0.915979 189.471 508.375)" fill="#EDF2F7"/>
<rect width="13.7464" height="13.4878" rx="6.74391" transform="matrix(0.927623 -0.384483 0.390695 0.915979 212.31 444.598)" fill="#EDF2F7"/>
<rect width="13.7464" height="13.4878" rx="6.74391" transform="matrix(0.927623 -0.384483 0.390695 0.915979 220.778 431.596)" fill="#EDF2F7"/>
<rect width="13.7464" height="13.4878" rx="6.74391" transform="matrix(0.927623 -0.384483 0.390695 0.915979 235.811 434.857)" fill="#EDF2F7"/>
<rect width="19.1995" height="18.8384" rx="9.41918" transform="matrix(0.927623 -0.384483 0.390695 0.915979 225.921 451.212)" fill="#EDF2F7"/>
<rect width="9.55353" height="9.40947" rx="4.70474" transform="matrix(0.648312 0.761124 -0.770491 0.637749 320.733 359.914)" fill="#EDF2F7"/>
<rect width="9.55353" height="9.40947" rx="4.70474" transform="matrix(0.648312 0.761124 -0.770491 0.637749 331.251 362.787)" fill="#EDF2F7"/>
<rect width="9.55353" height="9.40947" rx="4.70474" transform="matrix(0.648312 0.761124 -0.770491 0.637749 332.148 373.315)" fill="#EDF2F7"/>
<rect width="13.3434" height="13.1422" rx="6.57108" transform="matrix(0.648312 0.761124 -0.770491 0.637749 319.075 370.201)" fill="#EDF2F7"/>
<rect width="9.55353" height="9.40947" rx="4.70474" transform="matrix(0.648312 0.761124 -0.770491 0.637749 374.814 358.883)" fill="#EDF2F7"/>
<rect width="9.55353" height="9.40947" rx="4.70474" transform="matrix(0.648312 0.761124 -0.770491 0.637749 385.331 361.756)" fill="#EDF2F7"/>
<rect width="9.55353" height="9.40947" rx="4.70474" transform="matrix(0.648312 0.761124 -0.770491 0.637749 386.229 372.284)" fill="#EDF2F7"/>
<rect width="13.3434" height="13.1422" rx="6.57108" transform="matrix(0.648312 0.761124 -0.770491 0.637749 373.156 369.17)" fill="#EDF2F7"/>
<rect width="9.55353" height="9.40947" rx="4.70474" transform="matrix(0.648312 0.761124 -0.770491 0.637749 367.741 308.602)" fill="#EDF2F7"/>
<rect width="9.55353" height="9.40947" rx="4.70474" transform="matrix(0.648312 0.761124 -0.770491 0.637749 378.259 311.475)" fill="#EDF2F7"/>
<rect width="9.55353" height="9.40947" rx="4.70474" transform="matrix(0.648312 0.761124 -0.770491 0.637749 379.156 322.003)" fill="#EDF2F7"/>
<rect width="13.3434" height="13.1422" rx="6.57108" transform="matrix(0.648312 0.761124 -0.770491 0.637749 366.083 318.889)" fill="#EDF2F7"/>
<rect width="9.55353" height="9.40947" rx="4.70474" transform="matrix(0.648312 0.761124 -0.770491 0.637749 413.821 320.722)" fill="#EDF2F7"/>
<rect width="9.55353" height="9.40947" rx="4.70474" transform="matrix(0.648312 0.761124 -0.770491 0.637749 424.338 323.595)" fill="#EDF2F7"/>
<rect width="9.55353" height="9.40947" rx="4.70474" transform="matrix(0.648312 0.761124 -0.770491 0.637749 425.236 334.123)" fill="#EDF2F7"/>
<rect width="13.3434" height="13.1422" rx="6.57108" transform="matrix(0.648312 0.761124 -0.770491 0.637749 412.162 331.009)" fill="#EDF2F7"/>
<rect width="58.0891" height="17.5189" rx="8.75947" transform="matrix(0.712155 -0.702022 0.712155 0.702022 253.255 818.42)" fill="#EDF2F7"/>
<rect width="18.5562" height="18.5562" rx="9.27812" transform="matrix(0.712155 -0.702022 0.712155 0.702022 238.316 816.802)" fill="#EDF2F7"/>
<rect width="18.5562" height="18.5562" rx="9.27812" transform="matrix(0.712155 -0.702022 0.712155 0.702022 254.486 832.742)" fill="#EDF2F7"/>
<rect width="18.5562" height="18.5562" rx="9.27812" transform="matrix(0.712155 -0.702022 0.712155 0.702022 278.946 776.75)" fill="#EDF2F7"/>
<rect width="18.5562" height="18.5562" rx="9.27812" transform="matrix(0.712155 -0.702022 0.712155 0.702022 295.116 792.69)" fill="#EDF2F7"/>
<rect width="56.1779" height="17.0782" rx="8.5391" transform="matrix(-0.47609 -0.879397 0.885002 -0.465587 953.313 215.339)" fill="#EDF2F7"/>
<rect width="17.9457" height="18.0894" rx="8.97285" transform="matrix(-0.47609 -0.879397 0.885002 -0.465587 947.569 228.563)" fill="#EDF2F7"/>
<rect width="17.9457" height="18.0894" rx="8.97285" transform="matrix(-0.47609 -0.879397 0.885002 -0.465587 967.157 218.257)" fill="#EDF2F7"/>
<rect width="17.9457" height="18.0894" rx="8.97285" transform="matrix(-0.47609 -0.879397 0.885002 -0.465587 921.3 180.042)" fill="#EDF2F7"/>
<rect width="17.9457" height="18.0894" rx="8.97285" transform="matrix(-0.47609 -0.879397 0.885002 -0.465587 940.889 169.737)" fill="#EDF2F7"/>
<rect width="48.7944" height="14.5539" rx="7.27695" transform="matrix(0.942749 -0.333502 0.342078 0.939671 849.719 197.507)" fill="#EDF2F7"/>
<rect width="15.5871" height="15.4156" rx="7.70782" transform="matrix(0.942749 -0.333502 0.342078 0.939671 839.018 191.035)" fill="#EDF2F7"/>
<rect width="15.5871" height="15.4156" rx="7.70782" transform="matrix(0.942749 -0.333502 0.342078 0.939671 845.47 208.76)" fill="#EDF2F7"/>
<rect width="15.5871" height="15.4156" rx="7.70782" transform="matrix(0.942749 -0.333502 0.342078 0.939671 884.197 175.053)" fill="#EDF2F7"/>
<rect width="15.5871" height="15.4156" rx="7.70782" transform="matrix(0.942749 -0.333502 0.342078 0.939671 890.65 192.778)" fill="#EDF2F7"/>
<rect width="51.6029" height="15.5628" rx="7.78139" transform="matrix(0.712155 -0.702022 0.712155 0.702022 53.3734 583.766)" fill="#EDF2F7"/>
<rect width="16.4843" height="16.4843" rx="8.24213" transform="matrix(0.712155 -0.702022 0.712155 0.702022 40.1027 582.328)" fill="#EDF2F7"/>
<rect width="16.4843" height="16.4843" rx="8.24213" transform="matrix(0.712155 -0.702022 0.712155 0.702022 54.4672 596.488)" fill="#EDF2F7"/>
<rect width="16.4843" height="16.4843" rx="8.24213" transform="matrix(0.712155 -0.702022 0.712155 0.702022 76.1957 546.749)" fill="#EDF2F7"/>
<rect width="16.4843" height="16.4843" rx="8.24213" transform="matrix(0.712155 -0.702022 0.712155 0.702022 90.5601 560.908)" fill="#EDF2F7"/>
<rect width="33.8535" height="10.2098" rx="5.1049" transform="matrix(0.712155 -0.702022 0.712155 0.702022 18.6154 377.677)" fill="#EDF2F7"/>
<rect width="10.8143" height="10.8143" rx="5.40716" transform="matrix(0.712155 -0.702022 0.712155 0.702022 9.9093 376.734)" fill="#EDF2F7"/>
<rect width="10.8143" height="10.8143" rx="5.40716" transform="matrix(0.712155 -0.702022 0.712155 0.702022 19.3329 386.023)" fill="#EDF2F7"/>
<rect width="10.8143" height="10.8143" rx="5.40716" transform="matrix(0.712155 -0.702022 0.712155 0.702022 33.5878 353.392)" fill="#EDF2F7"/>
<rect width="10.8143" height="10.8143" rx="5.40716" transform="matrix(0.712155 -0.702022 0.712155 0.702022 43.0114 362.681)" fill="#EDF2F7"/>
<rect width="51.6143" height="15.3514" rx="7.67568" transform="matrix(-0.992668 -0.12087 0.124331 -0.992241 260.268 182.847)" fill="#EDF2F7"/>
<rect width="16.4879" height="16.2603" rx="8.13016" transform="matrix(-0.992668 -0.12087 0.124331 -0.992241 267.848 194.429)" fill="#EDF2F7"/>
<rect width="16.4879" height="16.2603" rx="8.13016" transform="matrix(-0.992668 -0.12087 0.124331 -0.992241 270.322 174.687)" fill="#EDF2F7"/>
<rect width="16.4879" height="16.2603" rx="8.13016" transform="matrix(-0.992668 -0.12087 0.124331 -0.992241 217.527 188.302)" fill="#EDF2F7"/>
<rect width="16.4879" height="16.2603" rx="8.13016" transform="matrix(-0.992668 -0.12087 0.124331 -0.992241 220.001 168.56)" fill="#EDF2F7"/>
<rect width="33.8535" height="10.2098" rx="5.1049" transform="matrix(0.712155 -0.702022 0.712155 0.702022 198.966 237.989)" fill="#EDF2F7"/>
<rect width="10.8143" height="10.8143" rx="5.40716" transform="matrix(0.712155 -0.702022 0.712155 0.702022 190.26 237.046)" fill="#EDF2F7"/>
<rect width="10.8143" height="10.8143" rx="5.40716" transform="matrix(0.712155 -0.702022 0.712155 0.702022 199.683 246.335)" fill="#EDF2F7"/>
<rect width="10.8143" height="10.8143" rx="5.40716" transform="matrix(0.712155 -0.702022 0.712155 0.702022 213.938 213.704)" fill="#EDF2F7"/>
<rect width="10.8143" height="10.8143" rx="5.40716" transform="matrix(0.712155 -0.702022 0.712155 0.702022 223.362 222.994)" fill="#EDF2F7"/>
<rect width="33.682" height="10.2613" rx="5.13064" transform="matrix(-0.388401 -0.92149 0.925387 -0.379024 305.833 214.917)" fill="#EDF2F7"/>
<rect width="10.7595" height="10.8689" rx="5.37976" transform="matrix(-0.388401 -0.92149 0.925387 -0.379024 301.625 222.49)" fill="#EDF2F7"/>
<rect width="10.7595" height="10.8689" rx="5.37976" transform="matrix(-0.388401 -0.92149 0.925387 -0.379024 313.932 217.449)" fill="#EDF2F7"/>
<rect width="10.7595" height="10.8689" rx="5.37976" transform="matrix(-0.388401 -0.92149 0.925387 -0.379024 288.777 192.007)" fill="#EDF2F7"/>
<rect width="10.7595" height="10.8689" rx="5.37976" transform="matrix(-0.388401 -0.92149 0.925387 -0.379024 301.084 186.966)" fill="#EDF2F7"/>
<rect width="51.4933" height="15.3883" rx="7.69414" transform="matrix(0.907437 -0.420187 0.43017 0.902748 1087.39 394.068)" fill="#EDF2F7"/>
<rect width="16.4492" height="16.2994" rx="8.14972" transform="matrix(0.907437 -0.420187 0.43017 0.902748 1074.72 388.249)" fill="#EDF2F7"/>
<rect width="16.4492" height="16.2994" rx="8.14972" transform="matrix(0.907437 -0.420187 0.43017 0.902748 1083.3 406.253)" fill="#EDF2F7"/>
<rect width="16.4492" height="16.2994" rx="8.14972" transform="matrix(0.907437 -0.420187 0.43017 0.902748 1120.61 366.998)" fill="#EDF2F7"/>
<rect width="16.4492" height="16.2994" rx="8.14972" transform="matrix(0.907437 -0.420187 0.43017 0.902748 1129.19 385.003)" fill="#EDF2F7"/>
<rect width="33.6341" height="10.2756" rx="5.13778" transform="matrix(-0.224544 0.974464 -0.975836 -0.218507 1109.46 315.204)" fill="#EDF2F7"/>
<rect width="10.7442" height="10.884" rx="5.37211" transform="matrix(-0.224544 0.974464 -0.975836 -0.218507 1117.33 311.428)" fill="#EDF2F7"/>
<rect width="10.7442" height="10.884" rx="5.37211" transform="matrix(-0.224544 0.974464 -0.975836 -0.218507 1104.34 308.518)" fill="#EDF2F7"/>
<rect width="10.7442" height="10.884" rx="5.37211" transform="matrix(-0.224544 0.974464 -0.975836 -0.218507 1109.91 343.618)" fill="#EDF2F7"/>
<rect width="10.7442" height="10.884" rx="5.37211" transform="matrix(-0.224544 0.974464 -0.975836 -0.218507 1096.92 340.708)" fill="#EDF2F7"/>
<rect width="33.9345" height="10.1853" rx="5.09266" transform="matrix(0.820662 0.571414 -0.582445 0.81287 1031.5 390.867)" fill="#EDF2F7"/>
<rect width="10.8402" height="10.7884" rx="5.3942" transform="matrix(0.820662 0.571414 -0.582445 0.81287 1030.97 382.249)" fill="#EDF2F7"/>
<rect width="10.8402" height="10.7884" rx="5.3942" transform="matrix(0.820662 0.571414 -0.582445 0.81287 1023.28 392.979)" fill="#EDF2F7"/>
<rect width="10.8402" height="10.7884" rx="5.3942" transform="matrix(0.820662 0.571414 -0.582445 0.81287 1058.32 401.293)" fill="#EDF2F7"/>
<rect width="10.8402" height="10.7884" rx="5.3942" transform="matrix(0.820662 0.571414 -0.582445 0.81287 1050.63 412.024)" fill="#EDF2F7"/>
<rect width="33.8535" height="10.2098" rx="5.1049" transform="matrix(0.712155 -0.702022 0.712155 0.702022 874.784 452.893)" fill="#EDF2F7"/>
<rect width="10.8143" height="10.8143" rx="5.40716" transform="matrix(0.712155 -0.702022 0.712155 0.702022 866.078 451.95)" fill="#EDF2F7"/>
<rect width="10.8143" height="10.8143" rx="5.40716" transform="matrix(0.712155 -0.702022 0.712155 0.702022 875.501 461.239)" fill="#EDF2F7"/>
<rect width="10.8143" height="10.8143" rx="5.40716" transform="matrix(0.712155 -0.702022 0.712155 0.702022 889.756 428.608)" fill="#EDF2F7"/>
<rect width="10.8143" height="10.8143" rx="5.40716" transform="matrix(0.712155 -0.702022 0.712155 0.702022 899.18 437.898)" fill="#EDF2F7"/>
<rect width="33.8535" height="10.2098" rx="5.1049" transform="matrix(0.712155 -0.702022 0.712155 0.702022 724.161 471.453)" fill="#EDF2F7"/>
<rect width="10.8143" height="10.8143" rx="5.40716" transform="matrix(0.712155 -0.702022 0.712155 0.702022 715.456 470.51)" fill="#EDF2F7"/>
<rect width="10.8143" height="10.8143" rx="5.40716" transform="matrix(0.712155 -0.702022 0.712155 0.702022 724.879 479.799)" fill="#EDF2F7"/>
<rect width="10.8143" height="10.8143" rx="5.40716" transform="matrix(0.712155 -0.702022 0.712155 0.702022 739.134 447.168)" fill="#EDF2F7"/>
<rect width="10.8143" height="10.8143" rx="5.40716" transform="matrix(0.712155 -0.702022 0.712155 0.702022 748.557 456.458)" fill="#EDF2F7"/>
<rect width="33.7319" height="10.2463" rx="5.12317" transform="matrix(-0.505187 -0.86301 0.869211 -0.494441 701.87 498.91)" fill="#EDF2F7"/>
<rect width="10.7755" height="10.853" rx="5.38774" transform="matrix(-0.505187 -0.86301 0.869211 -0.494441 698.691 506.955)" fill="#EDF2F7"/>
<rect width="10.7755" height="10.853" rx="5.38774" transform="matrix(-0.505187 -0.86301 0.869211 -0.494441 710.234 500.389)" fill="#EDF2F7"/>
<rect width="10.7755" height="10.853" rx="5.38774" transform="matrix(-0.505187 -0.86301 0.869211 -0.494441 681.954 478.364)" fill="#EDF2F7"/>
<rect width="10.7755" height="10.853" rx="5.38774" transform="matrix(-0.505187 -0.86301 0.869211 -0.494441 693.497 471.798)" fill="#EDF2F7"/>
<rect width="51.9866" height="15.6785" rx="7.83925" transform="matrix(0.712155 -0.702022 0.712155 0.702022 907.562 831.797)" fill="#EDF2F7"/>
<rect width="16.6068" height="16.6068" rx="8.30341" transform="matrix(0.712155 -0.702022 0.712155 0.702022 894.192 830.349)" fill="#EDF2F7"/>
<rect width="16.6068" height="16.6068" rx="8.30341" transform="matrix(0.712155 -0.702022 0.712155 0.702022 908.663 844.614)" fill="#EDF2F7"/>
<rect width="16.6068" height="16.6068" rx="8.30341" transform="matrix(0.712155 -0.702022 0.712155 0.702022 930.554 794.505)" fill="#EDF2F7"/>
<rect width="16.6068" height="16.6068" rx="8.30341" transform="matrix(0.712155 -0.702022 0.712155 0.702022 945.025 808.77)" fill="#EDF2F7"/>
<rect width="33.7564" height="10.239" rx="5.1195" transform="matrix(-0.55335 -0.832949 0.840145 -0.542362 783.094 695.994)" fill="#EDF2F7"/>
<rect width="10.7833" height="10.8453" rx="5.39165" transform="matrix(-0.55335 -0.832949 0.840145 -0.542362 780.38 704.203)" fill="#EDF2F7"/>
<rect width="10.7833" height="10.8453" rx="5.39165" transform="matrix(-0.55335 -0.832949 0.840145 -0.542362 791.529 697.006)" fill="#EDF2F7"/>
<rect width="10.7833" height="10.8453" rx="5.39165" transform="matrix(-0.55335 -0.832949 0.840145 -0.542362 762.035 676.588)" fill="#EDF2F7"/>
<rect width="10.7833" height="10.8453" rx="5.39165" transform="matrix(-0.55335 -0.832949 0.840145 -0.542362 773.184 669.39)" fill="#EDF2F7"/>
<rect width="85.4472" height="25.5383" rx="12.7692" transform="matrix(0.905054 0.425296 -0.435345 0.900264 602.006 606.243)" fill="#EDF2F7"/>
<rect width="27.2956" height="27.0505" rx="13.5252" transform="matrix(0.905054 0.425296 -0.435345 0.900264 596.965 585.125)" fill="#EDF2F7"/>
<rect width="27.2956" height="27.0505" rx="13.5252" transform="matrix(0.905054 0.425296 -0.435345 0.900264 582.555 614.923)" fill="#EDF2F7"/>
<rect width="27.2956" height="27.0505" rx="13.5252" transform="matrix(0.905054 0.425296 -0.435345 0.900264 672.918 620.816)" fill="#EDF2F7"/>
<rect width="27.2956" height="27.0505" rx="13.5252" transform="matrix(0.905054 0.425296 -0.435345 0.900264 658.509 650.614)" fill="#EDF2F7"/>
<rect width="34.0173" height="10.1602" rx="5.08008" transform="matrix(-0.91775 0.39716 -0.406819 -0.913509 463.809 715.79)" fill="#EDF2F7"/>
<rect width="10.8666" height="10.7618" rx="5.38088" transform="matrix(-0.91775 0.39716 -0.406819 -0.913509 471.573 719.786)" fill="#EDF2F7"/>
<rect width="10.8666" height="10.7618" rx="5.38088" transform="matrix(-0.91775 0.39716 -0.406819 -0.913509 466.216 707.757)" fill="#EDF2F7"/>
<rect width="10.8666" height="10.7618" rx="5.38088" transform="matrix(-0.91775 0.39716 -0.406819 -0.913509 440.911 733.055)" fill="#EDF2F7"/>
<rect width="10.8666" height="10.7618" rx="5.38088" transform="matrix(-0.91775 0.39716 -0.406819 -0.913509 435.554 721.026)" fill="#EDF2F7"/>
<rect width="33.8535" height="10.2098" rx="5.1049" transform="matrix(0.712155 -0.702022 0.712155 0.702022 506.156 870.979)" fill="#EDF2F7"/>
<rect width="10.8143" height="10.8143" rx="5.40716" transform="matrix(0.712155 -0.702022 0.712155 0.702022 497.45 870.036)" fill="#EDF2F7"/>
<rect width="10.8143" height="10.8143" rx="5.40716" transform="matrix(0.712155 -0.702022 0.712155 0.702022 506.873 879.326)" fill="#EDF2F7"/>
<rect width="10.8143" height="10.8143" rx="5.40716" transform="matrix(0.712155 -0.702022 0.712155 0.702022 521.128 846.694)" fill="#EDF2F7"/>
<rect width="10.8143" height="10.8143" rx="5.40716" transform="matrix(0.712155 -0.702022 0.712155 0.702022 530.552 855.984)" fill="#EDF2F7"/>
<rect width="33.8535" height="10.2098" rx="5.1049" transform="matrix(0.712155 -0.702022 0.712155 0.702022 1116.57 167.657)" fill="#EDF2F7"/>
<rect width="10.8143" height="10.8143" rx="5.40716" transform="matrix(0.712155 -0.702022 0.712155 0.702022 1107.87 166.714)" fill="#EDF2F7"/>
<rect width="10.8143" height="10.8143" rx="5.40716" transform="matrix(0.712155 -0.702022 0.712155 0.702022 1117.29 176.003)" fill="#EDF2F7"/>
<rect width="10.8143" height="10.8143" rx="5.40716" transform="matrix(0.712155 -0.702022 0.712155 0.702022 1131.54 143.372)" fill="#EDF2F7"/>
<rect width="10.8143" height="10.8143" rx="5.40716" transform="matrix(0.712155 -0.702022 0.712155 0.702022 1140.97 152.662)" fill="#EDF2F7"/>
<rect width="34.0727" height="10.1433" rx="5.07164" transform="matrix(0.976946 -0.213487 0.219399 0.975635 1084.93 133.753)" fill="#EDF2F7"/>
<rect width="10.8843" height="10.7439" rx="5.37194" transform="matrix(0.976946 -0.213487 0.219399 0.975635 1078.11 128.347)" fill="#EDF2F7"/>
<rect width="10.8843" height="10.7439" rx="5.37194" transform="matrix(0.976946 -0.213487 0.219399 0.975635 1080.99 141.173)" fill="#EDF2F7"/>
<rect width="10.8843" height="10.7439" rx="5.37194" transform="matrix(0.976946 -0.213487 0.219399 0.975635 1110.8 121.203)" fill="#EDF2F7"/>
<rect width="10.8843" height="10.7439" rx="5.37194" transform="matrix(0.976946 -0.213487 0.219399 0.975635 1113.68 134.028)" fill="#EDF2F7"/>
<rect width="33.8535" height="10.2098" rx="5.1049" transform="matrix(0.712155 -0.702022 0.712155 0.702022 1257.28 271.201)" fill="#EDF2F7"/>
<rect width="10.8143" height="10.8143" rx="5.40716" transform="matrix(0.712155 -0.702022 0.712155 0.702022 1248.58 270.258)" fill="#EDF2F7"/>
<rect width="10.8143" height="10.8143" rx="5.40716" transform="matrix(0.712155 -0.702022 0.712155 0.702022 1258 279.548)" fill="#EDF2F7"/>
<rect width="10.8143" height="10.8143" rx="5.40716" transform="matrix(0.712155 -0.702022 0.712155 0.702022 1272.26 246.917)" fill="#EDF2F7"/>
<rect width="10.8143" height="10.8143" rx="5.40716" transform="matrix(0.712155 -0.702022 0.712155 0.702022 1281.68 256.206)" fill="#EDF2F7"/>
<rect width="33.8535" height="10.2098" rx="5.1049" transform="matrix(0.712155 -0.702022 0.712155 0.702022 401.116 481.221)" fill="#EDF2F7"/>
<rect width="10.8143" height="10.8143" rx="5.40716" transform="matrix(0.712155 -0.702022 0.712155 0.702022 392.41 480.278)" fill="#EDF2F7"/>
<rect width="10.8143" height="10.8143" rx="5.40716" transform="matrix(0.712155 -0.702022 0.712155 0.702022 401.834 489.568)" fill="#EDF2F7"/>
<rect width="10.8143" height="10.8143" rx="5.40716" transform="matrix(0.712155 -0.702022 0.712155 0.702022 416.089 456.937)" fill="#EDF2F7"/>
<rect width="10.8143" height="10.8143" rx="5.40716" transform="matrix(0.712155 -0.702022 0.712155 0.702022 425.512 466.226)" fill="#EDF2F7"/>
</svg>
